# xmcd CD database file
#
# Track frame offsets:
#	150
#	21748
#	47168
#	67443
#	75978
#	94095
#	106980
#	132998
#	158008
#
# Disc length: 2335 seconds
#
# Revision: 0
# Processed by: cddbd v1.5.1PL0 Copyright (c) Steve Scherf et al.
# Submitted via: CDex 1.51
#
DISCID=78091d09
DTITLE=eastern bloom - capyba-land
DYEAR=2004
DGENRE=JPop
TTITLE0=The secret of the ancient forest part2
TTITLE1=Wood's voice
TTITLE2=Art of life
TTITLE3=村の祭り -The carnival-
TTITLE4=Grey sky
TTITLE5=White house on the hill
TTITLE6=The scoundrels' march
TTITLE7=崩れ去る町 -'Cause they need more-
TTITLE8=Sleeping bell
EXTD=YEAR: 2004
EXTT0=
EXTT1=
EXTT2=
EXTT3=
EXTT4=
EXTT5=
EXTT6=
EXTT7=
EXTT8=
PLAYORDER=
